{"title":"Les Miserables 1998 [MissouriMike]","uid":6871431,"size":944441466,"categoryP":"video","categoryS":"movies","magnet":"?xt=urn:btih:5cd8a0916b9560732f828cd0a4f3423ed713cd52&amp;dn=Les+Miserables+1998+%5BMissouriMike%5D&amp;tr=udp%3A%2F%2Ftracker.openbittorrent.com%3A80&amp;tr=udp%3A%2F%2Fopen.demonii.com%3A1337&amp;tr=udp%3A%2F%2Ftracker.coppersurfer.tk%3A6969&amp;tr=udp%3A%2F%2Fexodus.desync.com%3A6969","seeders":1,"leechers":0,"uploader":"MissouriMike","files":-1,"time":1323283209,"description":"Jean Valjean, a Frenchman imprisoned for stealing bread, must flee a police officer named Javert. The pursuit consumes both men's lives, and soon Valjean finds himself in the midst of the student revolutions in France.\n\n\n\nGeneral\nComplete name                    : Les Miserables 1998.avi\nFormat                           : AVI\nFormat/Info                      : Audio Video Interleave\nFile size                        : 901 MiB\nDuration                         : 2h 13mn\nOverall bit rate                 : 940 Kbps\n\nVideo\nID                               : 0\nFormat                           : MPEG-4 Visual\nFormat profile                   : Advanced Simple@L5\nFormat settings, BVOP            : 2\nFormat settings, QPel            : No\nFormat settings, GMC             : No warppoints\nFormat settings, Matrix          : Default (H.263)\nMuxing mode                      : Packed bitstream\nCodec ID                         : XVID\nCodec ID/Hint                    : XviD\nDuration                         : 2h 13mn\nBit rate                         : 835 Kbps\nWidth                            : 656 pixels\nHeight                           : 272 pixels\nDisplay aspect ratio             : 2.40:1\nFrame rate                       : 23.976 fps\nColor space                      : YUV\nChroma subsampling               : 4:2:0\nBit depth                        : 8 bits\nScan type                        : Progressive\nCompression mode                 : Lossy\nBits/(Pixel*Frame)               : 0.195\nStream size                      : 800 MiB (89%)\nWriting library                  : XviD 1.2.0.dev47 (UTC 2006-11-01)\n\nAudio\nID                               : 1\nFormat                           : MPEG Audio\nFormat version                   : Version 1\nFormat profile                   : Layer 3\nMode                             : Joint stereo\nMode extension                   : MS Stereo\nCodec ID                         : 55\nCodec ID/Hint                    : MP3\nDuration                         : 2h 13mn\nBit rate mode                    : Constant\nBit rate                         : 96.0 Kbps\nChannel(s)                       : 2 channels\nSampling rate                    : 48.0 KHz\nCompression mode                 : Lossy\nStream size                      : 92.0 MiB (10%)\nAlignment                        : Aligned on interleaves\nInterleave, duration             : 42 ms (1.00 video frame)\nInterleave, preload duration     : 504 ms\nWriting library                  : LAME3.97 \nEncoding settings                : -m j -V 4 -q 2 -lowpass 16 -b 96\n\n","torrent":{"xt":"urn:btih:5cd8a0916b9560732f828cd0a4f3423ed713cd52","amp;dn":"Les+Miserables+1998+%5BMissouriMike%5D","amp;tr":["udp%3A%2F%2Ftracker.openbittorrent.com%3A80","udp%3A%2F%2Fopen.demonii.com%3A1337","udp%3A%2F%2Ftracker.coppersurfer.tk%3A6969","udp%3A%2F%2Fexodus.desync.com%3A6969"],"infoHash":"5cd8a0916b9560732f828cd0a4f3423ed713cd52","infoHashBuffer":{"type":"Buffer","data":[92,216,160,145,107,149,96,115,47,130,140,208,164,243,66,62,215,19,205,82]},"announce":[],"urlList":[]}}